<svg width="43" height="41" viewBox="0 0 43 41" fill="none" xmlns="http://www.w3.org/2000/svg">
<path d="M13.1035 14.1653L10 11.2656L11.3541 10L14.4567 12.9006H29.043C29.1921 12.9006 29.3392 12.9331 29.4725 12.9957C29.6058 13.0583 29.7216 13.1491 29.8107 13.2609C29.8997 13.3728 29.9596 13.5025 29.9855 13.6398C30.0114 13.7771 30.0026 13.9181 29.9597 14.0517L27.663 21.207C27.6039 21.3913 27.4828 21.5529 27.3176 21.6678C27.1525 21.7827 26.9521 21.8447 26.7462 21.8447H15.0174V23.6335H25.5442V25.4223H14.0605C13.8067 25.4223 13.5632 25.3281 13.3838 25.1604C13.2043 24.9926 13.1035 24.7652 13.1035 24.5279V14.1653ZM15.0174 14.6894V20.0559H26.0342L27.7568 14.6894H15.0174ZM14.539 29C14.1582 29 13.7931 28.8587 13.5239 28.607C13.2547 28.3554 13.1035 28.0142 13.1035 27.6584C13.1035 27.3026 13.2547 26.9613 13.5239 26.7097C13.7931 26.4581 14.1582 26.3168 14.539 26.3168C14.9197 26.3168 15.2848 26.4581 15.554 26.7097C15.8232 26.9613 15.9744 27.3026 15.9744 27.6584C15.9744 28.0142 15.8232 28.3554 15.554 28.607C15.2848 28.8587 14.9197 29 14.539 29ZM26.0227 29C25.642 29 25.2769 28.8587 25.0077 28.607C24.7385 28.3554 24.5873 28.0142 24.5873 27.6584C24.5873 27.3026 24.7385 26.9613 25.0077 26.7097C25.2769 26.4581 25.642 26.3168 26.0227 26.3168C26.4034 26.3168 26.7685 26.4581 27.0378 26.7097C27.307 26.9613 27.4582 27.3026 27.4582 27.6584C27.4582 28.0142 27.307 28.3554 27.0378 28.607C26.7685 28.8587 26.4034 29 26.0227 29Z" fill="#0B0B0B" fill-opacity="0.8"/>
<ellipse cx="29.9204" cy="11.774" rx="4.92044" ry="4.77405" fill="#FA1583"/>
</svg>
