<svg width="26" height="23" viewBox="0 0 26 23" fill="none" xmlns="http://www.w3.org/2000/svg">
<g id="Favorite unchecked">
<path id="Vector" d="M12.9953 1.84533C16.0476 -0.700029 20.7645 -0.615545 23.705 2.12051C26.6443 4.85776 26.7456 9.2171 24.0117 12.0606L12.9927 22.3096L1.9764 12.0606C-0.757544 9.2171 -0.654891 4.85052 2.28306 2.12051C5.22621 -0.611924 9.93395 -0.703649 12.9953 1.84533ZM21.8651 3.82586C19.916 2.01309 16.7714 1.93947 14.7313 3.6412L12.9966 5.08708L11.2606 3.64241C9.21408 1.93826 6.07602 2.01309 4.12172 3.82827C2.1856 5.62656 2.08815 8.50503 3.87223 10.4071L12.994 18.8928L22.1159 10.4083C23.9012 8.50503 23.8038 5.63018 21.8651 3.82586Z" fill="#FA1583"/>
</g>
</svg>
