<svg width="45" height="49" viewBox="0 0 45 49" fill="none" xmlns="http://www.w3.org/2000/svg">
<mask id="mask0_97_528" style="mask-type:alpha" maskUnits="userSpaceOnUse" x="0" y="0" width="45" height="49">
<rect width="45" height="49" fill="#D9D9D9"/>
</mask>
<g mask="url(#mask0_97_528)">
<path d="M22.5 24.5001C20.4375 24.5001 18.6719 23.7004 17.2031 22.1011C15.7344 20.5018 15 18.5792 15 16.3334C15 14.0876 15.7344 12.165 17.2031 10.5657C18.6719 8.9664 20.4375 8.16675 22.5 8.16675C24.5625 8.16675 26.3281 8.9664 27.7969 10.5657C29.2656 12.165 30 14.0876 30 16.3334C30 18.5792 29.2656 20.5018 27.7969 22.1011C26.3281 23.7004 24.5625 24.5001 22.5 24.5001ZM7.5 40.8334V35.1167C7.5 33.9598 7.77344 32.8964 8.32031 31.9266C8.86719 30.9569 9.59375 30.2167 10.5 29.7063C12.4375 28.6515 14.4062 27.8603 16.4062 27.3329C18.4062 26.8055 20.4375 26.5417 22.5 26.5417C24.5625 26.5417 26.5938 26.8055 28.5938 27.3329C30.5938 27.8603 32.5625 28.6515 34.5 29.7063C35.4063 30.2167 36.1328 30.9569 36.6797 31.9266C37.2266 32.8964 37.5 33.9598 37.5 35.1167V40.8334H7.5ZM11.25 36.7501H33.75V35.1167C33.75 34.7424 33.6641 34.4022 33.4922 34.0959C33.3203 33.7897 33.0938 33.5515 32.8125 33.3813C31.125 32.4626 29.4219 31.7735 27.7031 31.3141C25.9844 30.8548 24.25 30.6251 22.5 30.6251C20.75 30.6251 19.0156 30.8548 17.2969 31.3141C15.5781 31.7735 13.875 32.4626 12.1875 33.3813C11.9062 33.5515 11.6797 33.7897 11.5078 34.0959C11.3359 34.4022 11.25 34.7424 11.25 35.1167V36.7501ZM22.5 20.4167C23.5312 20.4167 24.4141 20.0169 25.1484 19.2173C25.8828 18.4176 26.25 17.4563 26.25 16.3334C26.25 15.2105 25.8828 14.2492 25.1484 13.4496C24.4141 12.6499 23.5312 12.2501 22.5 12.2501C21.4688 12.2501 20.5859 12.6499 19.8516 13.4496C19.1172 14.2492 18.75 15.2105 18.75 16.3334C18.75 17.4563 19.1172 18.4176 19.8516 19.2173C20.5859 20.0169 21.4688 20.4167 22.5 20.4167Z" fill="black" fill-opacity="0.8"/>
</g>
</svg>
