<svg width="18" height="15" viewBox="0 0 18 15" fill="none" xmlns="http://www.w3.org/2000/svg">
<path d="M17.1576 12.9656L12.5136 9.27149C13.3548 8.38471 13.86 7.28508 13.86 6.09094C13.86 3.17003 10.8732 0.793213 7.20004 0.793213C3.52804 0.793213 0.540039 3.17003 0.540039 6.09094C0.540039 9.0128 3.52804 11.3887 7.20004 11.3887C8.70124 11.3887 10.0836 10.9868 11.1984 10.3177L15.8424 14.0118C16.0236 14.1559 16.2624 14.2294 16.5 14.2294C16.7376 14.2294 16.9752 14.1568 17.1576 14.0118C17.5212 13.7225 17.5212 13.2548 17.1576 12.9656ZM1.86004 6.09094C1.86004 3.74849 4.25644 1.84321 7.20004 1.84321C10.1448 1.84321 12.54 3.74944 12.54 6.09094C12.54 8.43244 10.1448 10.3387 7.20004 10.3387C4.25524 10.3387 1.86004 8.43339 1.86004 6.09094Z" fill="black" fill-opacity="0.8"/>
</svg>
